<svg viewBox="0 0 8 16" fill="none" xmlns="http://www.w3.org/2000/svg">
<path d="M7.34287 14.9243C6.85419 14.4709 6.40676 13.975 6.00587 13.4424C5.66594 12.7102 5.61359 11.877 5.85918 11.108C5.85144 11.116 5.83597 11.124 5.82824 11.132C5.58547 11.4985 5.28875 11.8262 4.94811 12.104C5.02524 11.8119 5.12604 11.5265 5.24948 11.2507C4.90276 9.87229 5.11026 7.4827 5.06279 6.26404C4.81188 6.36007 4.54056 6.39027 4.27467 6.35177C4.55098 6.26736 4.81385 6.14399 5.05532 5.98537C5.71222 2.63045 5.36443 0.654456 4.76941 0.0965914C3.72605 -0.198074 1.60866 -0.0231415 0.503422 3.61845C0.75066 4.84511 1.22993 5.40324 2.1258 6.06484C1.16806 5.90484 0.611439 5.18004 0.225246 4.18404C-0.0998703 5.35524 -0.176683 7.4827 0.711987 9.12402C1.35577 9.43451 2.05422 9.6157 2.76777 9.65736C2.15179 9.80117 1.50844 9.77639 0.905351 9.58562C1.72707 11.3911 3.18931 12.8276 5.00918 13.6173C5.15237 13.69 5.28716 13.7782 5.41111 13.8803C5.21775 13.6491 5.03238 13.4101 4.86249 13.1632C4.14831 12.1712 3.62385 11.0556 3.31559 9.87282C3.02616 8.73317 2.90123 7.55799 2.9446 6.38297C2.9907 5.26051 3.13032 4.14385 3.36199 3.04458C3.36974 3.00278 3.38575 2.96295 3.40907 2.9274C3.43239 2.89185 3.46256 2.86131 3.49781 2.83755C3.53307 2.81379 3.57271 2.79729 3.61442 2.78902C3.65612 2.78075 3.69906 2.78088 3.74072 2.78938C3.75879 2.79368 3.77661 2.79902 3.79406 2.80538C3.8919 2.83962 3.97473 2.9069 4.02828 2.99564C4.08183 3.08438 4.10275 3.18901 4.08744 3.29151V3.30751C3.84568 4.35827 3.68809 5.42663 3.61617 6.50244C3.55307 7.60532 3.64991 8.71153 3.90368 9.78669C4.17378 10.8924 4.64253 11.9399 5.28709 12.8781C5.95067 13.8307 6.73512 14.6931 7.62078 15.4437C7.66909 15.4833 7.7012 15.5393 7.71103 15.6009C7.72086 15.6626 7.70773 15.7258 7.67412 15.7784C7.64993 15.8089 7.61702 15.8314 7.57977 15.8427C7.54252 15.8541 7.50268 15.8539 7.46556 15.8421C7.6005 15.9346 7.75784 15.9892 7.92109 16C7.92109 16 8.31529 15.7768 7.34154 14.9243H7.34287Z" fill="#5CC6C7"/>
</svg>
